# xmcd CD database file
#
# Track frame offsets:
#	150
#	12609
#	22953
#	35158
#	46338
#	55660
#	67902
#	79295
#	90682
#	101675
#	117263
#	127330
#	138880
#	152799
#	163942
#	176579
#	186749
#	196413
#	206995
#	218056
#
# Disc length: 3021 seconds
#
# Revision: 3
# Processed by: cddbd v1.5.2PL0 Copyright (c) Steve Scherf et al.
# Submitted via: CDex 1.50beta10
#
DISCID=2d0bcb14
DTITLE=Various Artist - Country Greats Disc 3
DYEAR=1900
DGENRE=Country
TTITLE0=Charlie Rich - Behind Closed Doors
TTITLE1=Dave Dudley - Six Days On The Road
TTITLE2=Merle Haggard - Workin' Man Blues
TTITLE3=Conway Twitty - Hello Darlin'
TTITLE4=Jeannie C. Riley - The Girl Most Likely
TTITLE5=Johnny Cash - I Walk The Line
TTITLE6=Kenny Rogers - Me And Bobby McGee
TTITLE7=Frankie Laine - Mule Train
TTITLE8=Roger Miller - Husbands and Wives
TTITLE9=Cal Smith - Country Bumpkin
TTITLE10=Willie Nelson - Healing Hands of Time
TTITLE11=Del Wood - Down Yonder
TTITLE12=Don Fardon - Cocktail Bar Blues
TTITLE13=Faron Young - Goin' Steady
TTITLE14=Jeanne Pruett - Uncloudy Day
TTITLE15=Jim Ed Brown - Pop A Top
TTITLE16=Rose Maddox - Sing A Little Song of Heartache
TTITLE17=Tommy Collins - You Better Not Do That
TTITLE18=Patsy Cline - A Stranger in My Arms
TTITLE19=Waylon Jennings - Jole Blon
EXTD=this is a 20 box cd set, compiled by rajon music group in 2002
EXTT0=
EXTT1=
EXTT2=
EXTT3=
EXTT4=
EXTT5=
EXTT6=
EXTT7=
EXTT8=
EXTT9=
EXTT10=
EXTT11=
EXTT12=
EXTT13=
EXTT14=
EXTT15=
EXTT16=
EXTT17=
EXTT18=
EXTT19=
PLAYORDER=
